/* XPM */
static char * close_inactive_xpm[] = {
"24 32 48 1",
" 	c None",
".	c #FFFFFF",
"+	c #E8E8E8",
"@	c #000000",
"#	c #CBCBCB",
"$	c #CFCFCF",
"%	c #D0D0D0",
"&	c #AEAEAE",
"*	c #959595",
"=	c #BABABA",
"-	c #C0C0C0",
";	c #C1C1C1",
">	c #909090",
",	c #737373",
"'	c #C6C6C6",
")	c #C5C5C5",
"!	c #505050",
"~	c #C4C4C4",
"{	c #C8C8C8",
"]	c #4A4A4A",
"^	c #C2C2C2",
"/	c #525252",
"(	c #292929",
"_	c #B1B1B1",
":	c #5B5B5B",
"<	c #9C9C9C",
"[	c #797979",
"}	c #B3B3B3",
"|	c #ADADAD",
"1	c #CECECE",
"2	c #606060",
"3	c #CACACA",
"4	c #BFBFBF",
"5	c #5F5F5F",
"6	c #5C5C5C",
"7	c #B2B2B2",
"8	c #BCBCBC",
"9	c #CCCCCC",
"0	c #ACACAC",
"a	c #BEBEBE",
"b	c #919191",
"c	c #696969",
"d	c #7B7B7B",
"e	c #808080",
"f	c #747474",
"g	c #333333",
"h	c #3B3B3B",
"i	c #343434",
"                        ",
"                        ",
"                        ",
"                        ",
"                        ",
"                        ",
"                        ",
"                        ",
"   ...................+@",
"   .#$$$$$$$$$$$$$$$%&*@",
"   .=---------------;>,@",
"   .=---'')-----'')-;>,@",
"   .=--'@@!~---{@@]^;>,@",
"   .=--;&/(!)-_:@<_-;>,@",
"   .=---^[/@}|<@:_--;>,@",
"   .=----^&@@@@@{---;>,@",
"   .=-----^1@@234---;>,@",
"   .=-----_:@@(!)---;>,@",
"   .=----_<@56/@78--;>,@",
"   .=---{:@@{^&@@7)-;>,@",
"   .=--'@@:{--;9@@]^;>,@",
"   .=--;0|_----;0|_-;>,@",
"   .=---------------;>,@",
"   .a~~~~~~~~~~~~~~~)b,@",
"   .cddddddddddddddddef@",
"   eghhhhhhhhhhhhhhhhhi@",
"   @@@@@@@@@@@@@@@@@@@@@",
"                        ",
"                        ",
"                        ",
"                        ",
"                        "};
