/* XPM */
static char * hide_pressed_xpm[] = {
"21 32 34 1",
" 	c None",
".	c #000000",
"+	c #6A6A6A",
"@	c #868686",
"#	c #AEAEAE",
"$	c #ADADAD",
"%	c #B9B9B9",
"&	c #E8E8E8",
"*	c #767676",
"=	c #959595",
"-	c #C1C1C1",
";	c #C0C0C0",
">	c #CCCCCC",
",	c #FFFFFF",
"'	c #C2C2C2",
")	c #C3C3C3",
"!	c #696969",
"~	c #5C5C5C",
"{	c #A3A3A3",
"]	c #3A3A3A",
"^	c #9B9B9B",
"/	c #C4C4C4",
"(	c #151515",
"_	c #979797",
":	c #717171",
"<	c #919191",
"[	c #BFBFBF",
"}	c #BEBEBE",
"|	c #CBCBCB",
"1	c #DADADA",
"2	c #EEEEEE",
"3	c #F4F4F4",
"4	c #F6F6F6",
"5	c #EBEBEB",
"                     ",
"                     ",
"                     ",
"                     ",
"                     ",
"                     ",
"                     ",
"                     ",
".....................",
".+@#$$$$$$$$$$$$$$$%&",
".*=-;;;;;;;;;;;;;;;>,",
".*=-;;;;;;;;;;;;;;;>,",
".*=-;;;;;;;;;;;;;;;>,",
".*=-;;;;;;;;;;;;;;;>,",
".*=-;;;;;;;;;;;;;;;>,",
".*=-;;;;;;;;;;;;;;;>,",
".*=-;;;;;;;;;;;;;;;>,",
".*=-;;;;;;;;;;;;;;;>,",
".*=-;;;;;;;;;;;;;;;>,",
".*=-;;;;;;;;;;;;;;;>,",
".*=-;'''''''''-;;;;>,",
".*=-)!~~~~~~~~{;;;;>,",
".*=-)]........^;;;;>,",
".*=-/(........_;;;;>,",
".:<[}/////////;}}}}|,",
".1233333333333333334,",
".5,,,,,,,,,,,,,,,,,,,",
"                     ",
"                     ",
"                     ",
"                     ",
"                     "};
