/* XPM */
static char * hide_active_xpm[] = {
"21 32 30 1",
" 	c None",
".	c #FFFFFF",
"+	c #EDEDED",
"@	c #000000",
"#	c #D8D8D8",
"$	c #CFCFCF",
"%	c #B1B1B1",
"&	c #989898",
"*	c #CCCCCC",
"=	c #C0C0C0",
"-	c #C1C1C1",
";	c #959595",
">	c #767676",
",	c #C6C6C6",
"'	c #C5C5C5",
")	c #C3C3C3",
"!	c #C4C4C4",
"~	c #4E4E4E",
"{	c #5C5C5C",
"]	c #4F4F4F",
"^	c #C2C2C2",
"/	c #969696",
"(	c #9D9D9D",
"_	c #7B7B7B",
":	c #808080",
"<	c #777777",
"[	c #7E7E7E",
"}	c #4B4B4B",
"|	c #3B3B3B",
"1	c #363636",
"                     ",
"                     ",
"                     ",
"                     ",
"                     ",
"                     ",
"                     ",
"                     ",
"...................+@",
".#$$$$$$$$$$$$$$$$%&@",
".*===============-;>@",
".*===============-;>@",
".*===============-;>@",
".*===============-;>@",
".*===============-;>@",
".*===============-;>@",
".*===============-;>@",
".*===============-;>@",
".*===============-;>@",
".*==,,,,,,,,,====-;>@",
".*='@@@@@@@@@)===-;>@",
".*='@@@@@@@@@)===-;>@",
".*=!~{{{{{{{]^===-;>@",
".$!),''''''',)!!!!/>@",
".(________________:<@",
"[}|||||||||||||||||1@",
"@@@@@@@@@@@@@@@@@@@@@",
"                     ",
"                     ",
"                     ",
"                     ",
"                     "};
