/* XPM */
static char * maximize_pressed_xpm[] = {
"21 32 39 1",
" 	c None",
".	c #000000",
"+	c #6A6A6A",
"@	c #868686",
"#	c #AEAEAE",
"$	c #ADADAD",
"%	c #B9B9B9",
"&	c #E8E8E8",
"*	c #767676",
"=	c #959595",
"-	c #C1C1C1",
";	c #C0C0C0",
">	c #CCCCCC",
",	c #FFFFFF",
"'	c #C5C5C5",
")	c #C6C6C6",
"!	c #C4C4C4",
"~	c #151515",
"{	c #C3C3C3",
"]	c #3A3A3A",
"^	c #393939",
"/	c #5C5C5C",
"(	c #585858",
"_	c #7D7D7D",
":	c #C2C2C2",
"<	c #BBBBBB",
"[	c #7C7C7C",
"}	c #6F6F6F",
"|	c #A7A7A7",
"1	c #717171",
"2	c #919191",
"3	c #BFBFBF",
"4	c #BEBEBE",
"5	c #CBCBCB",
"6	c #DADADA",
"7	c #EEEEEE",
"8	c #F4F4F4",
"9	c #F6F6F6",
"0	c #EBEBEB",
"                     ",
"                     ",
"                     ",
"                     ",
"                     ",
"                     ",
"                     ",
"                     ",
".....................",
".+@#$$$$$$$$$$$$$$$%&",
".*=-;;;;;;;;;;;;;;;>,",
".*=-;')))))))))));;>,",
".*=-!~...........';>,",
".*=-{]...........';>,",
".*=-{]^////////(.';>,",
".*=-{]_::::::::<.';>,",
".*=-{][;;;;;;;;%.';>,",
".*=-{][;;;;;;;;%.';>,",
".*=-{][;;;;;;;;%.';>,",
".*=-{][;;;;;;;;%.';>,",
".*=-{][;;;;;;;;%.';>,",
".*=-{][;;;;;;;;%.';>,",
".*=-{]}#$$$$$$$|.';>,",
".*=-!~...........';>,",
".1234!!!!!!!!!!!'445,",
".6788888888888888889,",
".0,,,,,,,,,,,,,,,,,,,",
"                     ",
"                     ",
"                     ",
"                     ",
"                     "};
