/* XPM */
static char * maximize_toggled_pressed_xpm[] = {
"21 32 43 1",
" 	c None",
".	c #000000",
"+	c #6A6A6A",
"@	c #868686",
"#	c #AEAEAE",
"$	c #ADADAD",
"%	c #B9B9B9",
"&	c #E8E8E8",
"*	c #767676",
"=	c #959595",
"-	c #C1C1C1",
";	c #C0C0C0",
">	c #CCCCCC",
",	c #FFFFFF",
"'	c #C6C6C6",
")	c #C5C5C5",
"!	c #C3C3C3",
"~	c #151515",
"{	c #C4C4C4",
"]	c #3A3A3A",
"^	c #5B5B5B",
"/	c #5C5C5C",
"(	c #393939",
"_	c #C9C9C9",
":	c #C7C7C7",
"<	c #C8C8C8",
"[	c #C2C2C2",
"}	c #7D7D7D",
"|	c #0F0F0F",
"1	c #7C7C7C",
"2	c #B0B0B0",
"3	c #6F6F6F",
"4	c #BFBFBF",
"5	c #ACACAC",
"6	c #717171",
"7	c #919191",
"8	c #BEBEBE",
"9	c #CBCBCB",
"0	c #DADADA",
"a	c #EEEEEE",
"b	c #F4F4F4",
"c	c #F6F6F6",
"d	c #EBEBEB",
"                     ",
"                     ",
"                     ",
"                     ",
"                     ",
"                     ",
"                     ",
"                     ",
".....................",
".+@#$$$$$$$$$$$$$$$%&",
".*=-;;;;;;;;;;;;;;;>,",
".*=-;;;;''''''');;;>,",
".*=-;;;!.......~{;;>,",
".*=-;;;!.......]!;;>,",
".*=-;;;!.^////(]!;;>,",
".*=-;)'_.:<<<[}]!;;>,",
".*=-{~..|....!1]!;;>,",
".*=-!].......!1]!;;>,",
".*=-!](////^.23]!;;>,",
".*=-!]}[[[[-...~{;;>,",
".*=-!]1;;;;4._');;;>,",
".*=-!]1;;;;4.!;;;;;>,",
".*=-!]3#$$$5.!;;;;;>,",
".*=-{~.......!;;;;;>,",
".6748{{{{{{{)8888889,",
".0abbbbbbbbbbbbbbbbc,",
".d,,,,,,,,,,,,,,,,,,,",
"                     ",
"                     ",
"                     ",
"                     ",
"                     "};
