/* XPM */
static char * close_pressed_xpm[] = {
"24 32 36 1",
" 	c None",
".	c #000000",
"+	c #848484",
"@	c #7E7E7E",
"#	c #A4A4A4",
"$	c #FFFFFF",
"%	c #838383",
"&	c #ACACAC",
"*	c #B5B5B5",
"=	c #C7C7C7",
"-	c #828282",
";	c #C0C0C0",
">	c #CFCFCF",
",	c #C2C2C2",
"'	c #797979",
")	c #5C5C5C",
"!	c #4F4F4F",
"~	c #C5C5C5",
"{	c #525252",
"]	c #B2B2B2",
"^	c #BCBCBC",
"/	c #C1C1C1",
"(	c #AEAEAE",
"_	c #292929",
":	c #505050",
"<	c #C6C6C6",
"[	c #CCCCCC",
"}	c #C4C4C4",
"|	c #7D7D7D",
"1	c #B3B3B3",
"2	c #BEBEBE",
"3	c #CECECE",
"4	c #F3F3F3",
"5	c #F2F2F2",
"6	c #F4F4F4",
"7	c #F6F6F6",
"                        ",
"                        ",
"                        ",
"                        ",
"                        ",
"                        ",
"                        ",
"                        ",
"   .+@@@@@@@@@@@@@@@@@#$",
"   .%&****************=$",
"   .-*;;;;;;;;;;;;;;;;>$",
"   .-*;;;;;;;;;;;;;;;;>$",
"   .-*;;;,,,;;;;;,,,;;>$",
"   .-*;;,')!~;;;,')!~;>$",
"   .-*;;,'{.]^;/({_:~;>$",
"   .-*;;;,(..]<[..:};;>$",
"   .-*;;;;/[.....]~;;;>$",
"   .-*;;;;;/({..]^;;;;>$",
"   .-*;;;;;/({..]^;;;;>$",
"   .-*;;;;/[.....]~;;;>$",
"   .-*;;;,(..]<[..:};;>$",
"   .-*;;,'{.]^;/({_:~;>$",
"   .-*;;,')!~;;;,')!~;>$",
"   .-*;;;,,,;;;;;,,,;;>$",
"   .|122222222222222223$",
"   .4566666666666666667$",
"   .$$$$$$$$$$$$$$$$$$$$",
"                        ",
"                        ",
"                        ",
"                        ",
"                        "};
