/* XPM */
static char * maximize_active_xpm[] = {
"21 32 44 1",
" 	c None",
".	c #FFFFFF",
"+	c #EDEDED",
"@	c #000000",
"#	c #D8D8D8",
"$	c #CFCFCF",
"%	c #B1B1B1",
"&	c #989898",
"*	c #CCCCCC",
"=	c #C0C0C0",
"-	c #C1C1C1",
";	c #ACACAC",
">	c #ADADAD",
",	c #AFAFAF",
"'	c #959595",
")	c #767676",
"!	c #C5C5C5",
"~	c #313131",
"{	c #C4C4C4",
"]	c #3A3A3A",
"^	c #C3C3C3",
"/	c #A7A7A7",
"(	c #AEAEAE",
"_	c #6F6F6F",
":	c #B9B9B9",
"<	c #7C7C7C",
"[	c #BBBBBB",
"}	c #C2C2C2",
"|	c #7D7D7D",
"1	c #585858",
"2	c #5C5C5C",
"3	c #393939",
"4	c #4E4E4E",
"5	c #696969",
"6	c #C6C6C6",
"7	c #969696",
"8	c #9D9D9D",
"9	c #7B7B7B",
"0	c #808080",
"a	c #777777",
"b	c #7E7E7E",
"c	c #4B4B4B",
"d	c #3B3B3B",
"e	c #363636",
"                     ",
"                     ",
"                     ",
"                     ",
"                     ",
"                     ",
"                     ",
"                     ",
"...................+@",
".#$$$$$$$$$$$$$$$$%&@",
".*=-;>>>>>>>>>>,--')@",
".*=!@@@@@@@@@@@~{-')@",
".*=!@@@@@@@@@@@]^-')@",
".*=!@/>>>>>>>(_]^-')@",
".*=!@:========<]^-')@",
".*=!@:========<]^-')@",
".*=!@:========<]^-')@",
".*=!@:========<]^-')@",
".*=!@:========<]^-')@",
".*=!@:========<]^-')@",
".*=!@[}}}}}}}}|]^-')@",
".*=!@1222222223]^-')@",
".*={422222222225^-')@",
".${^6!!!!!!!!!!!^{7)@",
".899999999999999990a@",
"bcddddddddddddddddde@",
"@@@@@@@@@@@@@@@@@@@@@",
"                     ",
"                     ",
"                     ",
"                     ",
"                     "};
