/* XPM */
static char * maximize_toggled_active_xpm[] = {
"21 32 52 1",
" 	c None",
".	c #FFFFFF",
"+	c #EDEDED",
"@	c #000000",
"#	c #D8D8D8",
"$	c #CFCFCF",
"%	c #B1B1B1",
"&	c #989898",
"*	c #CCCCCC",
"=	c #C0C0C0",
"-	c #B9B9B9",
";	c #ADADAD",
">	c #C1C1C1",
",	c #959595",
"'	c #767676",
")	c #9A9A9A",
"!	c #9B9B9B",
"~	c #B3B3B3",
"{	c #ACACAC",
"]	c #8B8B8B",
"^	c #AEAEAE",
"/	c #C7C7C7",
"(	c #C5C5C5",
"_	c #010101",
":	c #CACACA",
"<	c #141414",
"[	c #A7A7A7",
"}	c #7E7E7E",
"|	c #040404",
"1	c #616161",
"2	c #8C8C8C",
"3	c #5E5E5E",
"4	c #5C5C5C",
"5	c #A3A3A3",
"6	c #C2C2C2",
"7	c #BBBBBB",
"8	c #8E8E8E",
"9	c #131313",
"0	c #585858",
"a	c #414141",
"b	c #C4C4C4",
"c	c #4E4E4E",
"d	c #C3C3C3",
"e	c #C6C6C6",
"f	c #969696",
"g	c #9D9D9D",
"h	c #7B7B7B",
"i	c #808080",
"j	c #777777",
"k	c #4B4B4B",
"l	c #3B3B3B",
"m	c #363636",
"                     ",
"                     ",
"                     ",
"                     ",
"                     ",
"                     ",
"                     ",
"                     ",
"...................+@",
".#$$$$$$$$$$$$$$$$%&@",
".*====-;;;;;;;-==>,'@",
".*====)@@@@@@@)==>,'@",
".*====!@@@@@@@!==>,'@",
".*====!@~;;;~@!==>,'@",
".*=>{;]@~;;^/@!==>,'@",
".*=(@@@_@@@@:@!==>,'@",
".*=(@@@@@@@<*@!==>,'@",
".*=(@[;;;;}|1@!==>,'@",
".*=(@-====2|345==>,'@",
".*=(@-====2</6>==>,'@",
".*=(@7666689(====>,'@",
".*=(@04444a9(====>,'@",
".*=bc4444443b====>,'@",
".$bde(((((((dbbbbbf'@",
".ghhhhhhhhhhhhhhhhij@",
"}klllllllllllllllllm@",
"@@@@@@@@@@@@@@@@@@@@@",
"                     ",
"                     ",
"                     ",
"                     ",
"                     "};
